<mxfile host="app.diagrams.net" modified="2022-05-29T15:21:10.289Z" agent="5.0 (Windows NT 10.0; Win64; x64) AppleWebKit/537.36 (KHTML, like Gecko) Chrome/101.0.4951.64 Safari/537.36 Edg/101.0.1210.53" etag="YGAsV292wKxeWjoYBxuH" version="18.1.3" type="github">
  <diagram id="SNlTifAWAPiF02_OhfJ7" name="Page-1">
    <mxGraphModel dx="2704" dy="2034" grid="1" gridSize="10" guides="1" tooltips="1" connect="1" arrows="1" fold="1" page="0" pageScale="1" pageWidth="827" pageHeight="1169" math="0" shadow="0">
      <root>
        <mxCell id="0" />
        <mxCell id="1" parent="0" />
        <mxCell id="D652P2f-NeGRpd41_jsT-4" style="edgeStyle=orthogonalEdgeStyle;rounded=0;orthogonalLoop=1;jettySize=auto;html=1;exitX=1;exitY=0.5;exitDx=0;exitDy=0;fontColor=none;entryX=0;entryY=0.5;entryDx=0;entryDy=0;" edge="1" parent="1" source="D652P2f-NeGRpd41_jsT-2" target="D652P2f-NeGRpd41_jsT-16">
          <mxGeometry relative="1" as="geometry">
            <mxPoint x="-100" y="200" as="targetPoint" />
          </mxGeometry>
        </mxCell>
        <mxCell id="D652P2f-NeGRpd41_jsT-2" value="&lt;pre style=&quot;background-color:#2b2b2b;color:#a9b7c6;font-family:&#39;JetBrains Mono&#39;,monospace;font-size:9.8pt;&quot;&gt;WyvernRegistry&lt;/pre&gt;" style="rounded=0;whiteSpace=wrap;html=1;fontColor=none;strokeColor=default;" vertex="1" parent="1">
          <mxGeometry x="-160" y="80" width="120" height="60" as="geometry" />
        </mxCell>
        <mxCell id="D652P2f-NeGRpd41_jsT-7" style="edgeStyle=orthogonalEdgeStyle;rounded=0;orthogonalLoop=1;jettySize=auto;html=1;exitX=0.5;exitY=1;exitDx=0;exitDy=0;fontColor=none;" edge="1" parent="1" source="D652P2f-NeGRpd41_jsT-5" target="D652P2f-NeGRpd41_jsT-2">
          <mxGeometry relative="1" as="geometry" />
        </mxCell>
        <mxCell id="D652P2f-NeGRpd41_jsT-21" style="edgeStyle=orthogonalEdgeStyle;rounded=0;orthogonalLoop=1;jettySize=auto;html=1;exitX=1;exitY=0.5;exitDx=0;exitDy=0;entryX=0;entryY=0.5;entryDx=0;entryDy=0;fontColor=none;" edge="1" parent="1" source="D652P2f-NeGRpd41_jsT-5" target="D652P2f-NeGRpd41_jsT-20">
          <mxGeometry relative="1" as="geometry" />
        </mxCell>
        <mxCell id="D652P2f-NeGRpd41_jsT-23" style="edgeStyle=orthogonalEdgeStyle;rounded=0;orthogonalLoop=1;jettySize=auto;html=1;exitX=1;exitY=0.5;exitDx=0;exitDy=0;entryX=0;entryY=0.5;entryDx=0;entryDy=0;fontColor=none;" edge="1" parent="1" source="D652P2f-NeGRpd41_jsT-5" target="D652P2f-NeGRpd41_jsT-22">
          <mxGeometry relative="1" as="geometry" />
        </mxCell>
        <mxCell id="D652P2f-NeGRpd41_jsT-5" value="&lt;pre style=&quot;background-color:#2b2b2b;color:#a9b7c6;font-family:&#39;JetBrains Mono&#39;,monospace;font-size:9.8pt;&quot;&gt;&lt;span style=&quot;color:#769aa5;&quot;&gt;ProxyRegistry&lt;/span&gt;&lt;/pre&gt;" style="rounded=0;whiteSpace=wrap;html=1;fontColor=none;strokeColor=default;" vertex="1" parent="1">
          <mxGeometry x="-160" y="-60" width="120" height="60" as="geometry" />
        </mxCell>
        <mxCell id="D652P2f-NeGRpd41_jsT-10" style="edgeStyle=orthogonalEdgeStyle;rounded=0;orthogonalLoop=1;jettySize=auto;html=1;exitX=0.5;exitY=1;exitDx=0;exitDy=0;fontColor=none;" edge="1" parent="1" source="D652P2f-NeGRpd41_jsT-8" target="D652P2f-NeGRpd41_jsT-5">
          <mxGeometry relative="1" as="geometry" />
        </mxCell>
        <mxCell id="D652P2f-NeGRpd41_jsT-8" value="&lt;pre style=&quot;background-color:#2b2b2b;color:#a9b7c6;font-family:&#39;JetBrains Mono&#39;,monospace;font-size:9.8pt;&quot;&gt;&lt;span style=&quot;color:#769aa5;&quot;&gt;Ownable&lt;/span&gt;&lt;/pre&gt;" style="rounded=0;whiteSpace=wrap;html=1;fontColor=none;strokeColor=default;" vertex="1" parent="1">
          <mxGeometry x="-320" y="-220" width="120" height="60" as="geometry" />
        </mxCell>
        <mxCell id="D652P2f-NeGRpd41_jsT-11" style="edgeStyle=orthogonalEdgeStyle;rounded=0;orthogonalLoop=1;jettySize=auto;html=1;exitX=0.5;exitY=1;exitDx=0;exitDy=0;entryX=0.5;entryY=0;entryDx=0;entryDy=0;fontColor=none;" edge="1" parent="1" source="D652P2f-NeGRpd41_jsT-9" target="D652P2f-NeGRpd41_jsT-5">
          <mxGeometry relative="1" as="geometry" />
        </mxCell>
        <mxCell id="D652P2f-NeGRpd41_jsT-9" value="&lt;pre style=&quot;background-color:#2b2b2b;color:#a9b7c6;font-family:&#39;JetBrains Mono&#39;,monospace;font-size:9.8pt;&quot;&gt;&lt;span style=&quot;color:#769aa5;&quot;&gt;ProxyRegistryInterface&lt;/span&gt;&lt;/pre&gt;" style="rounded=0;whiteSpace=wrap;html=1;fontColor=none;strokeColor=default;" vertex="1" parent="1">
          <mxGeometry x="-40" y="-220" width="200" height="60" as="geometry" />
        </mxCell>
        <mxCell id="D652P2f-NeGRpd41_jsT-13" style="edgeStyle=orthogonalEdgeStyle;rounded=0;orthogonalLoop=1;jettySize=auto;html=1;exitX=0.5;exitY=1;exitDx=0;exitDy=0;fontColor=none;" edge="1" parent="1" source="D652P2f-NeGRpd41_jsT-12" target="D652P2f-NeGRpd41_jsT-8">
          <mxGeometry relative="1" as="geometry" />
        </mxCell>
        <mxCell id="D652P2f-NeGRpd41_jsT-12" value="&lt;pre style=&quot;background-color:#2b2b2b;color:#a9b7c6;font-family:&#39;JetBrains Mono&#39;,monospace;font-size:9.8pt;&quot;&gt;&lt;span style=&quot;color:#769aa5;&quot;&gt;Context&lt;/span&gt;&lt;/pre&gt;" style="rounded=0;whiteSpace=wrap;html=1;fontColor=none;strokeColor=default;" vertex="1" parent="1">
          <mxGeometry x="-320" y="-380" width="120" height="60" as="geometry" />
        </mxCell>
        <mxCell id="D652P2f-NeGRpd41_jsT-15" style="edgeStyle=orthogonalEdgeStyle;rounded=0;orthogonalLoop=1;jettySize=auto;html=1;exitX=0;exitY=0.5;exitDx=0;exitDy=0;fontColor=none;entryX=1;entryY=0.5;entryDx=0;entryDy=0;" edge="1" parent="1" source="D652P2f-NeGRpd41_jsT-14" target="D652P2f-NeGRpd41_jsT-16">
          <mxGeometry relative="1" as="geometry">
            <mxPoint x="-40" y="230" as="targetPoint" />
          </mxGeometry>
        </mxCell>
        <mxCell id="D652P2f-NeGRpd41_jsT-14" value="&lt;pre style=&quot;background-color:#2b2b2b;color:#a9b7c6;font-family:&#39;JetBrains Mono&#39;,monospace;font-size:9.8pt;&quot;&gt;&lt;span style=&quot;color:#769aa5;&quot;&gt;AuthenticatedProxy&lt;/span&gt;&lt;/pre&gt;" style="rounded=0;whiteSpace=wrap;html=1;fontColor=none;strokeColor=default;" vertex="1" parent="1">
          <mxGeometry x="240" y="80" width="150" height="60" as="geometry" />
        </mxCell>
        <mxCell id="D652P2f-NeGRpd41_jsT-16" value="&lt;pre style=&quot;background-color:#2b2b2b;color:#a9b7c6;font-family:&#39;JetBrains Mono&#39;,monospace;font-size:9.8pt;&quot;&gt;&lt;span style=&quot;color:#cc7832;&quot;&gt;constructor&lt;/span&gt;&lt;/pre&gt;" style="rounded=1;whiteSpace=wrap;html=1;fontColor=none;strokeColor=default;" vertex="1" parent="1">
          <mxGeometry x="30" y="80" width="120" height="60" as="geometry" />
        </mxCell>
        <mxCell id="D652P2f-NeGRpd41_jsT-20" value="&lt;pre style=&quot;background-color:#2b2b2b;color:#a9b7c6;font-family:&#39;JetBrains Mono&#39;,monospace;font-size:9.8pt;&quot;&gt;registerProxy&lt;/pre&gt;" style="rounded=1;whiteSpace=wrap;html=1;fontColor=none;strokeColor=default;" vertex="1" parent="1">
          <mxGeometry x="320" y="-120" width="120" height="60" as="geometry" />
        </mxCell>
        <mxCell id="D652P2f-NeGRpd41_jsT-22" value="&lt;pre style=&quot;background-color:#2b2b2b;color:#a9b7c6;font-family:&#39;JetBrains Mono&#39;,monospace;font-size:9.8pt;&quot;&gt;proxies&lt;/pre&gt;" style="shape=process;whiteSpace=wrap;html=1;backgroundOutline=1;fontColor=none;strokeColor=default;" vertex="1" parent="1">
          <mxGeometry x="320" y="-20" width="120" height="60" as="geometry" />
        </mxCell>
      </root>
    </mxGraphModel>
  </diagram>
</mxfile>
